<?xml version="1.0" encoding="UTF-8" standalone="no"?>
<!-- Generator: Adobe Illustrator 13.0.2, SVG Export Plug-In . SVG Version: 6.00 Build 14948)  -->

<svg
   xmlns:dc="http://purl.org/dc/elements/1.1/"
   xmlns:cc="http://creativecommons.org/ns#"
   xmlns:rdf="http://www.w3.org/1999/02/22-rdf-syntax-ns#"
   xmlns:svg="http://www.w3.org/2000/svg"
   xmlns="http://www.w3.org/2000/svg"
   xmlns:sodipodi="http://sodipodi.sourceforge.net/DTD/sodipodi-0.dtd"
   xmlns:inkscape="http://www.inkscape.org/namespaces/inkscape"
   version="1.1"
   x="0px"
   y="0px"
   width="1920px"
   height="1710.889px"
   viewBox="0 0 1920 1710.889"
   enable-background="new 0 0 1920 1710.889"
   xml:space="preserve"
   id="svg3039"
   inkscape:version="0.48.4 r9939"
   sodipodi:docname="foxlogo.svg"><metadata
     id="metadata3053"><rdf:RDF><cc:Work
         rdf:about=""><dc:format>image/svg+xml</dc:format><dc:type
           rdf:resource="http://purl.org/dc/dcmitype/StillImage" /><dc:title></dc:title></cc:Work></rdf:RDF></metadata><defs
     id="defs3051" /><sodipodi:namedview
     pagecolor="#ffffff"
     bordercolor="#666666"
     borderopacity="1"
     objecttolerance="10"
     gridtolerance="10"
     guidetolerance="10"
     inkscape:pageopacity="0"
     inkscape:pageshadow="2"
     inkscape:window-width="1920"
     inkscape:window-height="1030"
     id="namedview3049"
     showgrid="false"
     inkscape:zoom="0.49447976"
     inkscape:cx="717.3207"
     inkscape:cy="855.44452"
     inkscape:window-x="0"
     inkscape:window-y="0"
     inkscape:window-maximized="1"
     inkscape:current-layer="g3043" /><g
     id="foxblack" /><g
     id="tailwhite"><g
       id="g3043"><g
         id="g3045"
         style="fill:#000000"><path
           fill-rule="evenodd"
           clip-rule="evenodd"
           fill="#FFFFFF"
           d="M1912.222,482.069c-2.898-12.689-115.217-65.983-115.217-65.983     s0-41.901-1.861-53.875c-1.865-11.974-27.848-65.035-27.848-65.035c44.369-43.834,87.203-181.632,66.619-182.631     c-94.996-4.595-218.405,111.783-223.634,115.73c-11.195,8.36-65.051,1.849-65.051,1.849s-249.151-126.588-252.844-97.778     c-22.655,175.555,34.505,252.013,34.505,252.013s-103.622,64.619-162.881,58.723c-529.737-52.709-582.548-41.685-582.548-41.685     s-110.016-3.148-238.356,26.713c-103.888,24.165-174.251,122.208-176.117,124.34c-1.869,2.132-40.991,48.662-83.124,149.871     c-63.04,151.429-76.826,259.856-36.255,367.777c52.408,139.389,249.845,261.53,253.085,250.591     c-53.384-31.66-182.087-122.704-243.363-236.41c-5.265-9.76,2.512-62.492,10.821-63.124c6.163-0.466,51.679,57.624,53.179,53.124     c1.803-5.408,20.784-60.485,24.883-60.918c5.477-0.601,43.981,49.799,46.117,46.418c6-9.5,15.5-62.5,16.501-65.804     c1.504-4.964,53.178,47.063,53.178,47.063s5.562,24.87,13.39,60.234c-2.438-25.915-4.743-50.843-6.771-72.611     c-9.494-101.857-33.158-151.285-37.991-192.523c-4.095-34.991,2.617-87.45,3.447-82.021     c14.542,93.746,196.787,184.08,226.216,214.991c51.794,54.358,72.513,210.642,71.648,224.465     c-0.865,13.823,77.608,181.531,106.185,192.522c38.188,14.689,147.04,21.553,100.16-31.076     c-116.728-131.035-126.807-254.477-117.41-240.889c91.763,133.068,164.025,116.58,206.343,124.31     c42.302,7.795,19.85-35.375,13.807-36.239c11.524,1.663-161.763-86.535-169.221-148.49     c-8.233-68.349,88.93-101.857,109.649-108.785c20.715-6.929,159.715-3.464,212.374,7.761     c52.661,11.225,93.231,80.306,96.694,80.306c3.466,0,8.661,71.647,8.661,71.647s107.187,169.973,120.844,189.959     c38.972,56.822,41.435,136.396,50.094,175.235c8.63,38.871,69.05,72.516,115.684,97.561c46.596,25.048,93.23-12.924,95.826-18.12     c2.601-5.196-46.631-75.11-66.481-94.13c-19.854-18.985-48.364-101.856-62.153-123.439     c-12.393-19.387-23.417-77.711-24.917-97.562c-0.165-2.266-0.2-4.03-0.134-5.162c3.732-48.765,15.392-106.823,39.705-214.974     c7.627-33.843,83.137-85.704,188.229-225.35c24.68-32.776,85.037-204.997,92.463-205.463     c73.379-4.647,121.609,9.16,176.533,7.428C1845.973,591.972,1924.311,534.849,1912.222,482.069z"
           id="path3047"
           style="fill:#000000" /></g></g></g></svg>